<svg width="282" height="602" viewBox="0 0 282 602" fill="none" xmlns="http://www.w3.org/2000/svg">
<g style="mix-blend-mode:hard-light" opacity="0.91">
<path d="M260.389 177.572L320.258 127.37L321.225 206.527L260.389 177.572Z" fill="#5B52DD" stroke="white" stroke-width="3"/>
<path d="M344.665 535.548L309.387 421.514L400.649 456.011L344.665 535.548Z" fill="#0A3081" stroke="white" stroke-width="3"/>
<path d="M276.479 558.174L261.031 477.187L340.843 538.43L276.479 558.174Z" fill="#053CAE" stroke="white" stroke-width="3"/>
<path d="M306.432 421.786L341.322 534.877L261.829 474.27L306.432 421.786Z" fill="#0B45D0" stroke="white" stroke-width="3"/>
<path d="M167.802 505.395L258.127 476.37L273.455 557.626L167.802 505.395Z" fill="#9A5BE8" stroke="white" stroke-width="3"/>
<path d="M268.318 289.919L189.522 196.967L256.757 180.101L268.318 289.919Z" fill="#D063F0" stroke="white" stroke-width="3"/>
<path d="M321.254 209.375L271.137 289.391L259.664 180.061L321.254 209.375Z" fill="#9A5BE8" stroke="white" stroke-width="3"/>
<path d="M344.945 304.666L272.221 292.523L322.44 212.298L344.945 304.666Z" fill="#D063F0" stroke="white" stroke-width="3"/>
<path d="M306.908 414.089L271.935 294.979L344.771 307.348L306.908 414.089Z" fill="#9A5BE8" stroke="white" stroke-width="3"/>
<path d="M226.375 383.834L269.46 297.192L304.58 416.632L226.375 383.834Z" fill="#D063F0" stroke="white" stroke-width="3"/>
<path d="M166.748 502.6L224.133 388.005L257.403 473.957L166.748 502.6Z" fill="#D063F0" stroke="white" stroke-width="3"/>
<path d="M304.725 419.422L259.803 472.698L226.491 386.836L304.725 419.422Z" fill="#5B52DD" stroke="white" stroke-width="3"/>
<path d="M163.928 501.55L115.292 388.179L222.354 385.657L163.928 501.55Z" fill="#EE90F7" stroke="white" stroke-width="3"/>
<path d="M221.121 380.897L74.595 291.749L180.022 283.93L221.121 380.897Z" fill="#F8DBFB" stroke="white" stroke-width="3"/>
<path d="M266.336 292.003L182.411 280.798L187.911 199.632L266.336 292.003Z" fill="#F3B3F9" stroke="white" stroke-width="3"/>
<path d="M224.436 381.033L183.225 283.928L267.738 295.036L224.436 381.033Z" fill="#EE90F7" stroke="white" stroke-width="3"/>
<path d="M113.507 385.092L73.2948 294.319L219.128 382.912L113.507 385.092Z" fill="#F3B3F9" stroke="white" stroke-width="3"/>
</g>
</svg>
