<svg width="210" height="59" viewBox="0 0 210 59" fill="none" xmlns="http://www.w3.org/2000/svg">
<path d="M37.2223 35.5802V23.9438H41.8814C42.7375 23.9438 43.4515 24.0707 44.0234 24.3245C44.5954 24.5783 45.0253 24.9306 45.3132 25.3813C45.6011 25.8283 45.745 26.3435 45.745 26.9268C45.745 27.3813 45.6541 27.781 45.4723 28.1257C45.2905 28.4666 45.0405 28.7469 44.7223 28.9666C44.4079 29.1825 44.0481 29.3359 43.6428 29.4268V29.5404C44.0859 29.5594 44.5007 29.6844 44.8871 29.9154C45.2772 30.1465 45.5935 30.4704 45.8359 30.887C46.0784 31.2999 46.1996 31.7923 46.1996 32.3643C46.1996 32.9817 46.0462 33.5329 45.7393 34.0177C45.4363 34.4988 44.9875 34.8794 44.3928 35.1597C43.7981 35.44 43.0651 35.5802 42.1939 35.5802H37.2223ZM39.6825 33.5688H41.6882C42.3738 33.5688 42.8738 33.4382 43.1882 33.1768C43.5026 32.9116 43.6598 32.5594 43.6598 32.12C43.6598 31.798 43.5821 31.5139 43.4268 31.2677C43.2715 31.0215 43.05 30.8283 42.7621 30.6882C42.478 30.548 42.139 30.4779 41.745 30.4779H39.6825V33.5688ZM39.6825 28.8132H41.5064C41.8435 28.8132 42.1428 28.7544 42.4041 28.637C42.6693 28.5158 42.8776 28.3454 43.0291 28.1257C43.1844 27.906 43.2621 27.6427 43.2621 27.3359C43.2621 26.9154 43.1125 26.5764 42.8132 26.3188C42.5178 26.0613 42.0973 25.9325 41.5518 25.9325H39.6825V28.8132ZM53.3516 31.8643V26.8529H55.772V35.5802H53.4482V33.995H53.3572C53.1603 34.5063 52.8326 34.9173 52.3743 35.2279C51.9197 35.5385 51.3648 35.6938 50.7095 35.6938C50.1262 35.6938 49.6129 35.5613 49.1697 35.2961C48.7266 35.031 48.38 34.6541 48.13 34.1654C47.8838 33.6768 47.7588 33.0916 47.755 32.4097V26.8529H50.1754V31.9779C50.1792 32.4931 50.3175 32.9003 50.5902 33.1995C50.8629 33.4988 51.2285 33.6484 51.6868 33.6484C51.9785 33.6484 52.2512 33.5821 52.505 33.4495C52.7588 33.3132 52.9633 33.1124 53.1186 32.8472C53.2777 32.5821 53.3554 32.2544 53.3516 31.8643ZM59.2024 38.8529C58.8956 38.8529 58.6077 38.8283 58.3388 38.7791C58.0736 38.7336 57.8539 38.6749 57.6797 38.6029L58.2251 36.7961C58.5092 36.8832 58.7649 36.9306 58.9922 36.9382C59.2232 36.9457 59.4221 36.8927 59.5888 36.7791C59.7592 36.6654 59.8975 36.4722 60.0036 36.1995L60.1456 35.8302L57.0149 26.8529H59.5604L61.3672 33.262H61.4581L63.282 26.8529H65.8445L62.4524 36.5234C62.2895 36.9931 62.0679 37.4022 61.7876 37.7507C61.5111 38.1029 61.1607 38.3738 60.7365 38.5632C60.3123 38.7563 59.8009 38.8529 59.2024 38.8529ZM80.5646 23.9438V35.5802H78.4396L73.3771 28.2563H73.2919V35.5802H70.8317V23.9438H72.9908L78.0135 31.262H78.1158V23.9438H80.5646ZM86.495 35.7507C85.6125 35.7507 84.8492 35.5632 84.2053 35.1882C83.5651 34.8094 83.0708 34.2829 82.7223 33.6086C82.3738 32.9306 82.1996 32.1446 82.1996 31.2507C82.1996 30.3491 82.3738 29.5613 82.7223 28.887C83.0708 28.209 83.5651 27.6825 84.2053 27.3075C84.8492 26.9287 85.6125 26.7393 86.495 26.7393C87.3776 26.7393 88.139 26.9287 88.7791 27.3075C89.4231 27.6825 89.9193 28.209 90.2678 28.887C90.6162 29.5613 90.7905 30.3491 90.7905 31.2507C90.7905 32.1446 90.6162 32.9306 90.2678 33.6086C89.9193 34.2829 89.4231 34.8094 88.7791 35.1882C88.139 35.5632 87.3776 35.7507 86.495 35.7507ZM86.5064 33.8757C86.9079 33.8757 87.2431 33.762 87.5121 33.5347C87.781 33.3037 87.9837 32.9893 88.12 32.5916C88.2602 32.1938 88.3303 31.7412 88.3303 31.2336C88.3303 30.726 88.2602 30.2734 88.12 29.8757C87.9837 29.4779 87.781 29.1635 87.5121 28.9325C87.2431 28.7014 86.9079 28.5859 86.5064 28.5859C86.1011 28.5859 85.7602 28.7014 85.4837 28.9325C85.2109 29.1635 85.0045 29.4779 84.8643 29.8757C84.728 30.2734 84.6598 30.726 84.6598 31.2336C84.6598 31.7412 84.728 32.1938 84.8643 32.5916C85.0045 32.9893 85.2109 33.3037 85.4837 33.5347C85.7602 33.762 86.1011 33.8757 86.5064 33.8757ZM93.8672 35.5802L91.4922 26.8529H93.9411L95.2933 32.7166H95.3729L96.782 26.8529H99.1854L100.617 32.6825H100.691L102.021 26.8529H104.464L102.094 35.5802H99.532L98.032 30.0916H97.924L96.424 35.5802H93.8672Z" fill="white"/>
<rect y="0.484985" width="210" height="58" rx="29" fill="url(#paint0_linear_24_44)"/>
<mask id="mask0_24_44" style="mask-type:alpha" maskUnits="userSpaceOnUse" x="0" y="0" width="210" height="59">
<rect y="0.00012207" width="210" height="58" rx="29" fill="url(#paint1_linear_24_44)"/>
</mask>
<g mask="url(#mask0_24_44)">
<path d="M150.55 40.9719C142.821 37.7588 135.092 34.5457 127.364 31.4194C125.8 30.8115 124.237 30.1168 122.674 29.5089C131.098 22.5616 139.521 15.6143 148.726 7.97224C148.726 10.1433 148.726 11.2722 148.726 12.488C148.987 21.0853 149.247 29.5957 149.595 38.193C149.595 39.2351 150.116 40.1035 150.55 40.9719Z" fill="#9A5BE8"/>
<path d="M150.464 41.0587C151.593 40.7982 152.809 40.6245 154.112 40.364C154.112 35.8482 154.112 31.8535 154.112 28.1194C157.759 25.3404 161.146 22.822 164.793 20.13C169.396 30.8114 174.085 41.5797 178.948 52.6954C177.646 52.4349 176.43 52.3481 175.388 51.9138C167.398 48.527 159.496 45.1402 151.506 41.7534C151.159 41.5797 150.899 41.2324 150.464 41.0587Z" fill="#0A3081"/>
<path d="M150.551 40.972C150.899 41.2325 151.159 41.5798 151.506 41.6667C159.409 45.0535 167.398 48.5271 175.388 51.8271C176.43 52.2613 177.646 52.3482 178.948 52.6087C174.085 41.493 169.483 30.7247 164.793 20.0432C161.233 22.7353 157.846 25.2537 154.112 28.0326C154.112 31.7668 154.112 38.7141 154.112 43.143C152.809 43.4035 151.506 42.0141 150.378 42.1877C150.03 41.2325 149.77 43.7509 149.77 42.7956C149.422 34.1983 148.988 20.9985 148.728 12.4012C148.728 11.1854 148.728 9.96964 148.728 7.88545C139.522 15.4406 131.186 22.3879 122.675 29.4221C124.238 30.03 125.801 30.6378 127.365 31.3326C135.093 34.6325 142.822 37.7588 150.551 40.972ZM184.767 -0.190789C187.893 1.37235 190.324 2.58813 192.93 3.80391C200.919 7.53808 208.04 12.4012 213.077 19.8695C217.332 26.1221 215.508 35.1536 211.253 39.9299C202.743 49.3956 191.801 54.606 179.99 58.3402C170.004 61.5533 159.843 64.1586 149.422 65.3743C144.472 65.9822 139.522 66.4164 134.572 67.1112C122.762 68.7612 110.865 69.1085 98.9675 68.7612C91.1518 68.5006 83.3361 67.7191 75.5204 67.1112C72.3941 66.8506 69.2678 66.5901 66.1415 66.2428C50.1627 64.2454 34.6182 60.9454 19.6815 54.606C11.7789 51.2192 4.65794 47.0508 -1.07358 40.7114C-4.28671 37.0641 -6.45774 32.8957 -6.19721 28.0326C-5.93669 23.6037 -4.11303 19.6959 -0.986741 16.2222C5.35267 9.01438 13.6894 5.01969 22.1999 1.37235C32.0129 -2.88287 42.4339 -5.22758 52.768 -7.22493C59.9758 -8.70123 67.4441 -9.13543 74.7388 -10.0907C86.7229 -11.6538 98.707 -12.088 110.778 -11.7407C118.159 -11.4801 125.541 -10.6986 133.009 -10.0907C138.393 -9.65648 143.778 -8.96175 149.162 -8.35386C157.325 -7.39861 165.314 -5.57494 173.217 -3.23023C177.298 -2.01445 181.38 -1.0592 184.767 -0.190789ZM73.8704 53.1297C85.8545 41.2325 97.9254 29.2484 110.17 17.0038C107.999 11.4459 105.567 5.19337 102.962 -1.31972C90.1966 4.58548 77.6914 10.317 64.6652 16.309C67.8784 28.901 70.9178 41.3193 73.8704 53.1297ZM77.344 63.0296C94.1044 63.898 110.952 65.2875 128.233 62.8559C122.936 49.3956 117.812 36.2825 112.775 23.6037C100.617 35.7615 88.3729 48.0061 75.7809 60.5112C75.7809 60.5112 76.0414 61.2928 76.3888 62.0744C76.5625 62.4217 76.9967 62.6823 77.344 63.0296ZM183.551 51.914C184.159 51.914 184.246 52.0008 184.419 51.914C184.94 51.6534 185.461 51.3929 185.982 51.2192C194.059 47.9193 201.701 43.8377 207.519 37.1509C210.298 34.0247 211.687 30.551 210.645 26.2089C208.214 25.4274 205.956 24.7326 203.611 24.0379C194.493 21.0853 185.288 18.1327 176.169 15.1801C174.693 14.7459 173.217 14.5722 171.914 14.3117C170.698 15.6143 169.83 16.5696 168.788 17.6117C173.738 29.0747 178.688 40.5378 183.551 51.914ZM154.459 -2.70918C139.957 -5.74863 126.236 -6.18283 113.123 -7.22493C110.952 -5.4881 109.215 -4.18549 107.565 -2.79603C111.386 6.84335 115.12 16.3959 119.115 26.3826C130.751 16.7433 142.214 7.27756 154.459 -2.70918ZM71.4388 62.6823C68.6599 51.7403 66.1415 41.493 63.5363 31.2457C52.5943 34.2852 41.6523 37.3246 30.6235 40.4509C34.184 45.4877 37.3102 50.0903 40.7839 54.606C41.826 55.9955 43.3891 57.6455 44.9523 57.9928C53.4627 59.6428 62.1468 61.0323 71.4388 62.6823ZM121.98 34.1115C125.801 44.0114 129.449 53.2166 133.096 62.5954C146.383 61.8139 159.062 59.2955 171.654 55.1271C155.414 48.2666 139.088 41.3193 121.98 34.1115ZM22.0262 28.38C23.9367 31.0721 25.7604 33.5905 27.7577 36.3694C39.2207 33.1562 50.597 30.03 62.4074 26.73C60.4969 19.1748 58.6732 11.8801 56.7627 4.23811C45.0391 12.4012 33.5761 20.3037 22.0262 28.38ZM25.8472 5.97494C25.5867 5.71442 25.3262 5.36705 25.0656 5.10653C21.6788 6.75651 18.292 8.58018 14.8184 10.0565C9.86841 12.2275 5.52635 15.3538 2.40007 19.5222C-2.20252 25.5142 -3.33145 28.38 0.229036 34.2852C1.87902 36.9773 4.13689 39.322 6.74213 42.5351C9 35.4141 14.0368 30.6378 14.9052 24.4721C19.8552 18.6538 21.5051 11.5328 25.8472 5.97494ZM61.0179 1.71972C61.7995 4.846 62.6679 8.14597 63.6231 11.6196C77.3441 5.28021 90.4571 -0.798676 104.439 -7.22493C90.9781 -7.31177 78.473 -6.35652 65.9678 -4.44601C66.1415 -0.798677 62.4942 -0.711835 61.0179 1.71972ZM153.504 3.89075C153.504 10.2302 153.504 15.9617 153.504 22.8221C162.448 15.9617 170.525 9.70911 179.035 3.10918C172.609 1.37235 166.443 -0.277629 160.364 -1.84077C157.759 0.330259 155.414 2.32761 153.504 3.89075ZM59.2811 -3.14339C59.1942 -3.40391 59.1074 -3.5776 59.0206 -3.83812C50.1627 -1.75393 41.3049 0.330259 32.534 2.32761C30.7971 5.8881 29.1472 9.01438 27.6709 12.2275C26.1946 15.4406 23.5025 18.0459 22.7209 22.3879C35.3129 13.5301 47.297 5.19337 59.2811 -3.14339ZM35.3997 55.2139C29.4077 46.7903 23.763 38.8009 17.9446 30.6379C15.2526 35.6746 12.821 40.1035 10.3895 44.4456C18.1183 49.6561 26.4551 52.6087 35.3997 55.2139ZM206.824 20.3037C201.006 11.967 192.235 8.75386 183.898 5.19337C181.64 7.10388 179.73 8.66702 177.559 10.4907C187.632 13.8775 197.272 17.0906 206.824 20.3037Z" fill="white"/>
<path d="M73.8703 53.1298C70.9177 41.2326 67.7914 28.9011 64.6651 16.3091C77.6045 10.3171 90.1964 4.49873 103.049 -1.40648C105.567 5.10661 107.999 11.3592 110.257 16.917C97.9253 29.2485 85.8544 41.2326 73.8703 53.1298Z" fill="#0B45D0"/>
<path d="M77.3439 63.0295C76.9966 62.6822 76.6492 62.4216 76.4755 61.9874C76.1281 61.2059 75.8676 60.4243 75.8676 60.4243C88.2859 48.006 100.617 35.7614 112.775 23.6036C117.812 36.3693 122.936 49.4823 128.233 62.8558C110.865 65.2874 94.1043 63.9848 77.3439 63.0295Z" fill="#D063F0"/>
<path d="M183.55 51.9139C178.687 40.6246 173.737 29.1615 168.787 17.6116C169.829 16.5695 170.698 15.6143 171.914 14.3117C173.216 14.5722 174.693 14.7459 176.169 15.1801C185.374 18.1327 194.492 21.0853 203.611 24.0379C205.869 24.7326 208.126 25.4273 210.645 26.2089C211.774 30.551 210.298 33.9378 207.519 37.1509C201.7 43.8377 194.058 47.9192 185.982 51.2192C185.461 51.3929 184.94 51.7402 184.419 51.9139C184.332 52.0008 184.158 51.9139 183.55 51.9139Z" fill="#053CAE"/>
<path d="M154.46 -2.70921C142.215 7.36437 130.752 16.7432 119.029 26.2958C115.034 16.2222 111.3 6.66964 107.479 -2.88289C109.216 -4.27235 110.952 -5.57497 113.037 -7.3118C126.236 -6.18286 139.957 -5.74866 154.46 -2.70921Z" fill="#D063F0"/>
<path d="M71.4378 62.6823C62.1458 61.0323 53.5486 59.6429 44.9513 57.906C43.3881 57.5587 41.9118 55.9955 40.7829 54.5192C37.3961 50.0035 34.183 45.3141 30.6225 40.3641C41.6513 37.3247 52.5065 34.2852 63.5353 31.1589C66.1405 41.493 68.6589 51.7403 71.4378 62.6823Z" fill="#F3B3F9"/>
<path d="M121.98 34.1115C139.088 41.3193 155.414 48.2666 171.653 55.2139C159.061 59.2954 146.382 61.9007 133.096 62.6822C129.448 53.2165 125.801 44.0114 121.98 34.1115Z" fill="#F3B3F9"/>
<path d="M22.0266 28.38C33.5765 20.3038 45.0395 12.4012 56.7631 4.23816C58.6736 11.7933 60.4973 19.088 62.4078 26.73C50.5974 30.03 39.2212 33.1563 27.7581 36.3694C25.7608 33.5037 23.9371 30.9853 22.0266 28.38Z" fill="#F8DBFB"/>
<path d="M25.8458 5.97489C21.5037 11.5327 19.7669 18.6537 14.817 24.3852C13.9486 30.551 8.9986 35.3272 6.65389 42.4482C4.04865 39.2351 1.79078 36.8904 0.140796 34.1983C-3.33285 28.3799 -2.20392 25.5142 2.31183 19.5221C5.52495 15.2669 9.78017 12.2275 14.7301 10.0564C18.2038 8.58013 21.5906 6.75646 24.9774 5.10648C25.3248 5.367 25.5853 5.62752 25.8458 5.97489Z" fill="#0B45D0"/>
<path d="M61.0183 1.71973C62.4946 -0.71182 66.0551 -0.798662 65.9683 -4.44599C78.4734 -6.3565 90.9785 -7.31175 104.439 -7.22491C90.4575 -0.798662 77.2576 5.28022 63.6236 11.6196C62.7551 8.14598 61.8867 4.84602 61.0183 1.71973Z" fill="#9A5BE8"/>
<path d="M153.504 3.8907C155.328 2.32756 157.759 0.33021 160.364 -1.84082C166.53 -0.190837 172.609 1.45915 179.035 3.10913C170.525 9.70906 162.449 15.8748 153.504 22.8221C153.504 15.9616 153.504 10.2301 153.504 3.8907Z" fill="#5B52DD"/>
<path d="M59.2809 -3.14354C47.2968 5.19322 35.3127 13.6168 22.7207 22.3878C23.4155 18.0457 26.1944 15.4405 27.6707 12.2274C29.147 9.01423 30.797 5.88795 32.5338 2.32745C41.2179 0.330107 50.0757 -1.75408 59.0204 -3.83827C59.0204 -3.66459 59.1941 -3.40407 59.2809 -3.14354Z" fill="#D063F0"/>
<path d="M35.3992 55.2141C26.3678 52.6088 18.031 49.7431 10.389 44.5326C12.7337 40.1037 15.1652 35.6748 17.9441 30.7248C23.7625 38.8011 29.4072 46.7905 35.3992 55.2141Z" fill="#0A3081"/>
<path d="M206.824 20.3035C197.184 17.0904 187.632 13.8773 177.471 10.5773C179.642 8.75366 181.553 7.19052 183.811 5.28001C192.234 8.75366 201.005 11.9668 206.824 20.3035Z" fill="#0B45D0"/>
</g>
<rect x="2.5" y="2.50012" width="205" height="53" rx="26.5" stroke="white" stroke-width="5"/>
<rect y="0.00012207" width="210" height="58" rx="29" fill="url(#paint2_linear_24_44)" fill-opacity="0.71"/>
<defs>
<linearGradient id="paint0_linear_24_44" x1="2.65985" y1="-7.22934" x2="233.786" y2="76.4044" gradientUnits="userSpaceOnUse">
<stop stop-color="#DA10FF"/>
<stop offset="1" stop-color="#001AFF"/>
</linearGradient>
<linearGradient id="paint1_linear_24_44" x1="2.65985" y1="-7.7142" x2="233.786" y2="75.9195" gradientUnits="userSpaceOnUse">
<stop stop-color="#DA10FF"/>
<stop offset="1" stop-color="#001AFF"/>
</linearGradient>
<linearGradient id="paint2_linear_24_44" x1="2.65985" y1="-7.7142" x2="233.786" y2="75.9195" gradientUnits="userSpaceOnUse">
<stop stop-color="#DA10FF"/>
<stop offset="1" stop-color="#001AFF"/>
</linearGradient>
</defs>
</svg>
