<svg width="808" height="465" viewBox="0 0 808 465" fill="none" xmlns="http://www.w3.org/2000/svg">
<path d="M611.831 393.617L691.571 316.905L774.253 422.307L611.831 393.617Z" fill="#D063F0" stroke="white" stroke-width="3"/>
<path d="M689.253 317.381L607.819 394.579L318.327 434.12L689.253 317.381Z" fill="#CE29FF" stroke="white" stroke-width="3"/>
<path d="M610.622 394.797L768.324 423.732L495.287 460.702L610.622 394.797Z" fill="#EE90F7" stroke="white" stroke-width="3"/>
<path d="M692.872 316.207L790.619 284.104L776.244 420.661L692.872 316.207Z" fill="#9A5BE8" stroke="white" stroke-width="3"/>
<path d="M790.533 281.411L694.84 313.625L793.849 171.981L790.533 281.411Z" fill="#5B52DD" stroke="white" stroke-width="3"/>
<path d="M301.716 438.364L604.889 396.563L417.988 501.785L301.716 438.364Z" fill="#F3B3F9" stroke="white" stroke-width="3"/>
<path d="M776.439 424.266L758.33 518.321L441.001 469.595L776.439 424.266Z" fill="#5B52DD" stroke="white" stroke-width="3"/>
<path d="M753.27 530.867L779.2 421.936L855.934 417.699L753.27 530.867Z" fill="#0A3081" stroke="white" stroke-width="3"/>
<path d="M792.798 288.638L838.912 416.628L778.681 420.392L792.798 288.638Z" fill="#B534B8" stroke="white" stroke-width="3"/>
<path d="M793.009 284.266L796.419 184.113L822.416 366.945L793.009 284.266Z" fill="#0B45D0" stroke="white" stroke-width="3"/>
<path d="M797.015 167.013L818.646 22.5222L814.32 297.227L797.015 167.013Z" fill="#EAEBFF" stroke="white" stroke-width="3"/>
<path d="M18.2252 467.185L299.698 439.038L399.621 492.048L18.2252 467.185Z" fill="#F8DBFB" stroke="white" stroke-width="3"/>
</svg>
