<svg width="470" height="675" viewBox="0 0 470 675" fill="none" xmlns="http://www.w3.org/2000/svg">
<g style="mix-blend-mode:hard-light" opacity="0.91">
<path d="M-0.698727 -1.83569L131.301 -1.83569L310 8.5L220 8.50014L200.5 116.5L227 205.5L131.301 264L187.5 386.5L-0.698975 405.5L-0.698726 376.164L-0.698727 -1.83569Z" fill="white"/>
<path d="M170.216 -60.8798L221.788 11.0256L326.985 14.4841L170.216 -60.8798Z" fill="#0A3081" stroke="white" stroke-width="3"/>
<path d="M81.0485 -21.2851L218.421 10.6291L164.9 -62.9673L81.0485 -21.2851Z" fill="#053CAE" stroke="white" stroke-width="3"/>
<path d="M129.036 62.4864L217.834 13.0786L79.8798 -18.7554L129.036 62.4864Z" fill="#0B45D0" stroke="white" stroke-width="3"/>
<path d="M201.219 112.959L219.844 15.2939L131.301 63.3367L201.219 112.959Z" fill="#5B52DD" stroke="white" stroke-width="3"/>
<path d="M10.0438 93.7451L126.203 62.1217L76.5252 -18.5968L10.0438 93.7451Z" fill="#5B52DD" stroke="white" stroke-width="3"/>
<path d="M34.1554 -126.288L77.8175 -22.6256L162.166 -64.749L34.1554 -126.288Z" fill="#0A3081" stroke="white" stroke-width="3"/>
<path d="M-18.705 4.49808L74.7653 -22.0943L31.2973 -125.343L-18.705 4.49808Z" fill="#0B45D0" stroke="white" stroke-width="3"/>
<path d="M6.92803 93.8398L73.4488 -18.3256L-20.03 7.63996L6.92803 93.8398Z" fill="#9A5BE8" stroke="white" stroke-width="3"/>
<path d="M-47.224 -165.41L-21.2312 0.678408L28.7423 -128.891L-47.224 -165.41Z" fill="#053CAE" stroke="white" stroke-width="3"/>
<path d="M-140.235 24.9395L-23.5275 5.14816L-49.8834 -163.006L-140.235 24.9395Z" fill="#0A3081" stroke="white" stroke-width="3"/>
<path d="M4.70073 94.7469L-22.4279 9.1829L-111.363 89.0871L4.70073 94.7469Z" fill="#5B52DD" stroke="white" stroke-width="3"/>
<path d="M-89.1922 203.599L3.69222 97.5177L-113.239 92.0736L-89.1922 203.599Z" fill="#0B45D0" stroke="white" stroke-width="3"/>
<path d="M72.9618 172.145L224.798 203.379L201.503 116.566L72.9618 172.145Z" fill="#D063F0" stroke="white" stroke-width="3"/>
<path d="M128.749 64.5269L69.9457 170.386L199.452 114.706L128.749 64.5269Z" fill="#9A5BE8" stroke="white" stroke-width="3"/>
<path d="M8.07864 96.8554L67.273 172.282L125.757 64.9432L8.07864 96.8554Z" fill="#D063F0" stroke="white" stroke-width="3"/>
<path d="M-87.6555 206.677L65.0552 171.688L5.95912 97.8488L-87.6555 206.677Z" fill="#9A5BE8" stroke="white" stroke-width="3"/>
<path d="M-88.7946 209.948L-3.97281 276.024L66.0824 173.349L-88.7946 209.948Z" fill="#D063F0" stroke="white" stroke-width="3"/>
<path d="M-91.2385 211.069L-121.731 293.038L-6.83588 276.698L-91.2385 211.069Z" fill="#5B52DD" stroke="white" stroke-width="3"/>
<path d="M-96.0053 416.213L59.6274 400.236L-3.93101 281.017L-96.0053 416.213Z" fill="#EE90F7" stroke="white" stroke-width="3"/>
<path d="M1.57809 278.769L187.729 384.909L133.084 264.112L1.57809 278.769Z" fill="#F8DBFB" stroke="white" stroke-width="3"/>
<path d="M69.3766 173.556L134.724 262.752L222.966 205.991L69.3766 173.556Z" fill="#F3B3F9" stroke="white" stroke-width="3"/>
<path d="M-2.39172 276.65L131.233 261.995L67.7572 175.448L-2.39172 276.65Z" fill="#EE90F7" stroke="white" stroke-width="3"/>
<path d="M61.854 399.903L186.193 386.992L-1.27219 280.346L61.854 399.903Z" fill="#F3B3F9" stroke="white" stroke-width="3"/>
</g>
</svg>
