<svg width="366" height="626" viewBox="0 0 366 626" fill="none" xmlns="http://www.w3.org/2000/svg">
<g style="mix-blend-mode:hard-light" opacity="0.91">
<path d="M170.216 -60.8803L221.788 11.0251L326.985 14.4836L170.216 -60.8803Z" fill="#0A3081" stroke="white" stroke-width="3"/>
<path d="M81.0483 -21.2857L218.421 10.6285L164.9 -62.9679L81.0483 -21.2857Z" fill="#053CAE" stroke="white" stroke-width="3"/>
<path d="M129.036 62.4859L217.834 13.0781L79.8798 -18.7558L129.036 62.4859Z" fill="#0B45D0" stroke="white" stroke-width="3"/>
<path d="M201.219 112.959L219.844 15.2934L131.301 63.3362L201.219 112.959Z" fill="#5B52DD" stroke="white" stroke-width="3"/>
<path d="M10.0438 93.7448L126.203 62.1214L76.5252 -18.5972L10.0438 93.7448Z" fill="#5B52DD" stroke="white" stroke-width="3"/>
<path d="M34.1554 -126.289L77.8175 -22.626L162.166 -64.7495L34.1554 -126.289Z" fill="#0A3081" stroke="white" stroke-width="3"/>
<path d="M-18.7045 4.49771L74.7658 -22.0947L31.2978 -125.343L-18.7045 4.49771Z" fill="#0B45D0" stroke="white" stroke-width="3"/>
<path d="M6.92827 93.8394L73.449 -18.326L-20.0298 7.63959L6.92827 93.8394Z" fill="#9A5BE8" stroke="white" stroke-width="3"/>
<path d="M-47.2235 -165.411L-21.2307 0.678041L28.7428 -128.891L-47.2235 -165.411Z" fill="#053CAE" stroke="white" stroke-width="3"/>
<path d="M-140.235 24.9391L-23.5273 5.14779L-49.8832 -163.007L-140.235 24.9391Z" fill="#0A3081" stroke="white" stroke-width="3"/>
<path d="M4.70098 94.7465L-22.4277 9.18253L-111.363 89.0867L4.70098 94.7465Z" fill="#5B52DD" stroke="white" stroke-width="3"/>
<path d="M-89.192 203.599L3.69246 97.5174L-113.238 92.0732L-89.192 203.599Z" fill="#0B45D0" stroke="white" stroke-width="3"/>
<path d="M72.9618 172.145L224.798 203.379L201.503 116.566L72.9618 172.145Z" fill="#D063F0" stroke="white" stroke-width="3"/>
<path d="M128.756 64.5314L71.0317 169.725L199.449 114.703L128.756 64.5314Z" fill="#9A5BE8" stroke="white" stroke-width="3"/>
<path d="M8.11922 96.8438L67.8559 170.368L125.742 64.9468L8.11922 96.8438Z" fill="#D063F0" stroke="white" stroke-width="3"/>
<path d="M-87.6555 206.677L65.0552 171.687L5.95912 97.8483L-87.6555 206.677Z" fill="#9A5BE8" stroke="white" stroke-width="3"/>
<path d="M-88.7944 209.948L-3.97257 276.024L66.0827 173.349L-88.7944 209.948Z" fill="#D063F0" stroke="white" stroke-width="3"/>
<path d="M-91.2385 211.068L-121.731 293.037L-6.83588 276.698L-91.2385 211.068Z" fill="#5B52DD" stroke="white" stroke-width="3"/>
<path d="M-96.0053 416.213L59.6274 400.235L-3.93101 281.016L-96.0053 416.213Z" fill="#EE90F7" stroke="white" stroke-width="3"/>
<path d="M1.60597 278.765L190.138 385.375L133.1 264.109L1.60597 278.765Z" fill="#F8DBFB" stroke="white" stroke-width="3"/>
<path d="M69.3766 173.555L134.724 262.752L222.966 205.99L69.3766 173.555Z" fill="#F3B3F9" stroke="white" stroke-width="3"/>
<path d="M-2.39196 276.65L131.233 261.995L67.757 175.448L-2.39196 276.65Z" fill="#EE90F7" stroke="white" stroke-width="3"/>
<path d="M61.8587 399.912L188.614 387.954L-1.27947 280.332L61.8587 399.912Z" fill="#F3B3F9" stroke="white" stroke-width="3"/>
</g>
</svg>
